<?xml version="1.0" encoding="utf-8"?>
<!-- Generator: Adobe Illustrator 18.0.0, SVG Export Plug-In . SVG Version: 6.00 Build 0)  -->
<!DOCTYPE svg PUBLIC "-//W3C//DTD SVG 1.1//EN" "http://www.w3.org/Graphics/SVG/1.1/DTD/svg11.dtd">
<svg version="1.1" id="レイヤー_1" xmlns="http://www.w3.org/2000/svg" xmlns:xlink="http://www.w3.org/1999/xlink" x="0px"
	 y="0px" viewBox="0 0 162 60.5" enable-background="new 0 0 162 60.5" xml:space="preserve">
<path fill="#818181" d="M160.6,12.8c-0.8-4-3.2-7.6-6.8-10c-3.7-2.4-7.9-3-11.9-2.2c-12.9,2.7-23.5,10.5-30.2,20.7
	c-1.2,1.9-2.2,3.9-2.8,5.9c-1.5-4.5-4.2-8.6-8.1-11.7c-9.5-7.7-22-11.8-35.1-10.4c-4,0.4-7.9,2.4-10.6,5.8c-1.2,1.5-2.1,3.2-2.7,4.9
	c-1.9-4.5-5.1-8.6-9.5-11.4C31.2-3.3,15.6,0.1,8,11.7C1.4,22-1.4,34.8,1.4,47.7c0.8,4,3.2,7.6,6.8,10c3.7,2.4,7.9,3,11.9,2.2
	C33,57.1,43.6,49.4,50.3,39.2c1.5-2.4,2.6-4.9,3.3-7.5c2.9,9.2,8.4,17.1,15.6,22.9c10.8,8.8,26.7,7.1,35.4-3.7c2-2.5,3.4-5.2,4.4-8
	c1.7,5.3,5.2,10,10.2,13.3c11.7,7.6,27.3,4.3,34.8-7.4C160.6,38.5,163.4,25.7,160.6,12.8"/>
<path fill="#FFFFFF" d="M48.2,37.8c-6.3,9.7-16.4,17.1-28.6,19.7c-3.3,0.7-6.9,0.1-10-1.9c-3.1-2-5.1-5.1-5.8-8.4
	c-2.6-12.3,0-24.4,6.3-34.1C17,2.6,31-0.4,41.5,6.4C52,13.2,55,27.3,48.2,37.8z"/>
<path fill="#FFFFFF" d="M102.6,49.3c-7.9,9.7-22.2,11.2-31.9,3.4c-9-7.3-15.3-18.1-16.6-30.5c-0.4-3.4,0.6-6.9,2.9-9.8
	c2.3-2.9,5.6-4.5,8.9-4.9c12.5-1.3,24.3,2.6,33.3,9.9C109,25.3,110.5,39.6,102.6,49.3z"/>
<path fill="#FFFFFF" d="M151.9,47.4c-6.8,10.5-20.9,13.5-31.4,6.7c-10.5-6.8-13.5-20.9-6.7-31.4C120.1,13,130.2,5.6,142.4,3
	c3.3-0.7,6.9-0.1,10,1.9c3.1,2,5.1,5.1,5.8,8.4C160.8,25.5,158.2,37.7,151.9,47.4z"/>
<path d="M90.6,17.7c-2.1,0-3.9,1.3-4.6,3.3c0,0-1,2.7-1.5,4.3H80l0.4-1.1c0.4-1.2,0.4-2.5-0.2-3.7c-0.6-1.2-1.6-2.1-2.8-2.5
	c-0.5-0.2-1.1-0.3-1.6-0.3c-2.1,0-4,1.3-4.6,3.3l-5.1,14.4c-0.4,1.2-0.4,2.5,0.2,3.7c0.6,1.2,1.6,2.1,2.8,2.5
	c0.5,0.2,1.1,0.3,1.6,0.3c2.1,0,3.9-1.3,4.6-3.3c0,0,0.9-2.6,1.5-4.3h4.4l-0.4,1.1c-0.4,1.2-0.4,2.6,0.2,3.7
	c0.6,1.2,1.6,2.1,2.8,2.5c0.5,0.2,1.1,0.3,1.6,0.3c2.1,0,3.9-1.3,4.6-3.3l5.1-14.4c0.4-1.2,0.4-2.6-0.2-3.7
	c-0.6-1.2-1.6-2.1-2.8-2.5C91.7,17.8,91.1,17.7,90.6,17.7L90.6,17.7z"/>
<path d="M21.9,17.7L21.9,17.7c-0.2,0-0.4,0-0.6,0c-1.9,0.2-3.4,1.5-4,3.2l-5.1,14.4c-0.4,1.2-0.4,2.5,0.2,3.7
	c0.6,1.2,1.6,2.1,2.8,2.5c0.5,0.2,1.1,0.3,1.6,0.3c2.1,0,3.9-1.3,4.6-3.3l0,0l0.5-1.3c0.4-1.1,1-2.7,1.5-4.2l4.1,6.6l0,0l0,0
	c0.9,1.4,2.4,2.2,4.1,2.2c0.2,0,0.4,0,0.6,0c1.9-0.2,3.4-1.5,4-3.2l5.1-14.4c0.4-1.2,0.4-2.6-0.2-3.7c-0.6-1.2-1.6-2.1-2.8-2.5
	c-0.5-0.2-1.1-0.3-1.6-0.3c-2.1,0-3.9,1.3-4.6,3.3c0,0-1,2.9-2,5.5L26,19.9l0,0l0,0C25.1,18.5,23.6,17.7,21.9,17.7L21.9,17.7z"/>
<path d="M129.8,17.7C129.8,17.7,129.8,17.7,129.8,17.7c-2.1,0-4,1.3-4.6,3.3l-5.1,14.4c-0.4,1.2-0.4,2.5,0.2,3.7
	c0.6,1.2,1.6,2.1,2.8,2.5c0.5,0.2,1.1,0.3,1.6,0.3c2.1,0,3.9-1.3,4.6-3.3l1.5-4.4l6.8,6.3c0.9,0.9,2.1,1.4,3.4,1.4
	c1.2,0,2.4-0.5,3.3-1.3c0.9-0.9,1.4-2,1.5-3.3c0-1.3-0.4-2.4-1.3-3.4l0,0l0,0l-0.1-0.1l-0.1-0.1l-3.9-3.3l6.3-4.2c1-0.7,1.7-1.8,2-3
	c0.2-1.2,0-2.5-0.7-3.5c-0.9-1.3-2.3-2-3.9-2c-0.9,0-1.8,0.3-2.6,0.8l-6.7,4.6c0.1-0.9-0.1-1.8-0.5-2.6c-0.6-1.2-1.6-2.1-2.8-2.5
	C130.9,17.8,130.4,17.7,129.8,17.7L129.8,17.7L129.8,17.7z"/>
<path fill="#E13F48" d="M91.7,19.4c-1.8-0.6-3.7,0.3-4.3,2.1c0,0-1.6,4.6-1.9,5.3h-7.6l1.1-3.1c0.3-0.8,0.2-1.8-0.1-2.6
	c-0.4-0.8-1.1-1.4-1.9-1.7c-1.8-0.6-3.7,0.3-4.3,2.1l-5.1,14.4c-0.3,0.8-0.2,1.8,0.1,2.6c0.4,0.8,1.1,1.4,2,1.7
	c1.8,0.6,3.7-0.3,4.3-2.1c0,0,1.4-4,1.9-5.3h7.6l-1.1,3.1c-0.3,0.8-0.2,1.8,0.1,2.6c0.4,0.8,1.1,1.4,2,1.7c1.8,0.6,3.7-0.3,4.3-2.1
	l5.1-14.4c0.3-0.8,0.2-1.8-0.1-2.6C93.3,20.3,92.6,19.7,91.7,19.4z"/>
<path fill="#E13F48" d="M37.9,19.4c-1.8-0.6-3.7,0.3-4.3,2.1c0,0-2.1,5.8-3,8.4l-5.8-9.2c-0.7-1.1-2-1.6-3.3-1.5
	c-1.3,0.2-2.4,1-2.8,2.2l-5.1,14.4c-0.3,0.8-0.2,1.8,0.1,2.6c0.4,0.8,1.1,1.4,2,1.7c1.8,0.6,3.7-0.3,4.3-2.1c0,0,2.1-5.8,3-8.4
	l5.8,9.2c0.7,1.1,2,1.6,3.3,1.5c1.3-0.2,2.4-1,2.8-2.2L40,23.7c0.3-0.9,0.2-1.8-0.1-2.6C39.4,20.3,38.7,19.7,37.9,19.4z"/>
<path fill="#E13F48" d="M146.7,20.6c-1-1.4-3-1.8-4.4-0.8c0,0-7.1,4.8-10.3,7l1.1-3v0c0.3-0.9,0.2-1.8-0.1-2.6
	c-0.4-0.8-1.1-1.4-2-1.7c-1.8-0.6-3.7,0.3-4.3,2.1l-5.1,14.4c-0.3,0.8-0.2,1.8,0.1,2.6c0.4,0.8,1.1,1.4,2,1.7
	c1.8,0.6,3.7-0.3,4.3-2.1c0,0,1.6-4.5,2.3-6.5l8.5,7.8l0,0c1.2,1.3,3.3,1.3,4.6,0.1c0.6-0.6,1-1.4,1-2.2c0-0.9-0.3-1.7-0.9-2.3l0,0
	l0,0l-5.4-4.6l7.9-5.3c0.7-0.5,1.2-1.2,1.3-2C147.4,22.1,147.2,21.3,146.7,20.6z"/>
</svg>
