<?xml version="1.0" encoding="UTF-8" standalone="no"?>
<!-- Created with Inkscape (http://www.inkscape.org/) -->
<svg
   xmlns:svg="http://www.w3.org/2000/svg"
   xmlns="http://www.w3.org/2000/svg"
   version="1.0"
   width="609.90002"
   height="370.83713"
   id="svg2">
  <defs
     id="defs4">
    <marker
       refX="0"
       refY="0"
       orient="auto"
       style="overflow:visible"
       id="Arrow1Lstart">
      <path
         d="M 0,0 L 5,-5 L -12.5,0 L 5,5 L 0,0 z "
         transform="matrix(0.8,0,0,0.8,10,0)"
         style="fill-rule:evenodd;stroke:black;stroke-width:1pt;marker-start:none"
         id="path7339" />
    </marker>
    <marker
       refX="0"
       refY="0"
       orient="auto"
       style="overflow:visible"
       id="Arrow1Lend">
      <path
         d="M 0,0 L 5,-5 L -12.5,0 L 5,5 L 0,0 z "
         transform="matrix(-0.8,0,0,-0.8,-10,0)"
         style="fill-rule:evenodd;stroke:black;stroke-width:1pt;marker-start:none"
         id="path7336" />
    </marker>
  </defs>
  <path
     d="M 248.62406,338.46996 C 246.50075,337.61973 246.32576,337.0953 246.89344,333.28336 C 247.87867,326.66757 247.71608,303.3902 246.66054,299.94182 C 245.40352,295.83519 245.14886,274.86914 246.34701,274.12865 C 247.32929,273.52157 249.98449,263.70756 249.34065,263.06373 C 249.13664,262.85971 246.27343,263.37407 242.97796,264.20675 C 231.4082,267.13015 221.21193,268.32808 214.98621,267.49543 C 204.63136,266.11056 199.1089,266.0767 195.33729,267.37497 C 191.90634,268.55597 191.71028,268.85237 192.05496,272.33681 C 193.28176,284.73878 193.24985,289.17255 191.91069,292.37761 C 190.90508,294.78436 190.48621,299.96066 190.48621,309.98075 L 190.48621,324.17462 L 194.11062,327.38342 L 197.73502,330.59222 L 195.42621,332.59465 C 192.06385,335.51082 188.99866,335.97715 181.1641,334.76447 C 172.3119,333.39427 170.05845,331.46571 171.53031,326.51956 C 173.27911,320.64276 172.11068,299.8505 169.8535,296.68076 C 169.17786,295.73196 160.48621,304.01164 160.48621,305.60406 C 160.48621,306.60534 160.03621,307.7027 159.48621,308.04262 C 158.93621,308.38254 158.48621,309.61702 158.48621,310.78591 C 158.48621,313.86923 162.43121,321.54262 164.0164,321.54262 C 167.07102,321.54262 166.37876,323.68957 162.84852,325.1646 C 158.86109,326.83064 152.63025,326.5346 146.46755,324.38627 L 143.28611,323.27721 L 143.68284,313.65992 C 143.92085,307.89028 144.66101,302.95389 145.53289,301.32135 C 146.33222,299.82465 148.28288,295.99964 149.8677,292.82135 C 151.45252,289.64305 155.22721,284.49171 158.25591,281.37396 C 165.38778,274.03233 165.03367,272.09562 156.73981,273.08222 C 145.90092,274.37155 135.78249,276.84285 130.64737,279.45495 C 128.63373,280.47924 124.06121,282.22113 120.48621,283.32585 C 116.91121,284.43054 111.38001,286.48975 108.19466,287.90186 C 99.99126,291.5385 81.89872,297.24252 75.98621,298.05615 C 73.23621,298.43459 68.01401,299.62286 64.38131,300.69675 C 59.56687,302.11998 54.28079,302.70258 44.88131,302.84595 C 32.5013,303.03476 30.1154,302.71453 17.67588,299.19448 C 11.76181,297.52096 1.48621,290.34827 1.48621,287.89359 C 1.48621,286.14271 1.06283,286.05477 12.48621,290.17824 C 18.80411,292.4588 22.03518,292.95098 32.98621,293.30102 C 45.74334,293.70877 46.19008,293.64931 56.89857,290.11806 C 73.604,284.60926 95.27138,273.06689 108.48621,262.63695 C 110.96121,260.68354 117.93105,254.57567 123.97474,249.06394 C 130.01844,243.55221 135.48095,238.59262 136.11367,238.04262 C 138.24815,236.18718 154.9005,220.26826 167.68285,207.86385 C 174.66601,201.08716 180.74101,195.53485 181.18285,195.52533 C 181.6247,195.51583 183.01971,194.4181 184.28287,193.08591 C 190.18256,186.86386 224.32965,167.54262 229.4264,167.54262 C 230.421,167.54262 233.20383,166.84516 235.61048,165.9927 C 238.01713,165.14026 246.15542,164.00237 253.69557,163.46408 C 261.74793,162.8892 269.84295,161.7065 273.3133,160.59786 C 280.10447,158.42833 289.02728,154.0942 290.02455,152.48058 C 290.39848,151.87555 292.09996,150.53184 293.8056,149.49458 C 295.51124,148.45732 303.85481,140.73129 312.34686,132.32562 C 329.53377,115.31357 343.25414,97.68009 367.48621,61.46033 C 383.10942,38.10826 382.97888,38.27533 395.48621,25.6257 C 402.40425,18.62896 406.8887,15.030825 411.98621,12.386805 C 418.33177,9.095435 432.91564,4.542623 437.11322,4.542623 C 438.03723,4.542623 441.19278,3.407452 444.12557,2.02002 C 447.60756,0.372776 450.31208,-0.288202 451.91943,0.115218 C 454.48614,0.75942 457.48621,4.425901 457.48621,6.918545 C 457.48621,7.714005 458.88009,9.537705 460.58371,10.971205 C 462.753,12.796545 463.81412,14.696085 464.12475,17.3101 C 464.86344,23.52643 464.70418,23.57642 447.2987,22.59138 C 431.31989,21.68708 427.23636,22.04353 421.98621,24.80095 C 417.78285,27.00859 406.9633,37.96693 403.03654,43.9937 C 395.98138,54.82193 392.42697,60.72501 388.50574,68.12607 C 386.26263,72.35978 382.05543,79.47298 379.15639,83.93318 C 376.25735,88.39337 371.95881,95.28055 369.60408,99.23801 C 367.24934,103.19547 364.68452,106.96306 363.90447,107.61044 C 363.12443,108.25783 362.48621,109.3523 362.48621,110.04262 C 362.48621,110.73293 361.78895,111.87641 360.93674,112.58367 C 358.90977,114.2659 338.39733,144.9639 334.75389,151.76775 C 333.20031,154.66892 330.70453,158.94618 329.20771,161.27275 C 327.71088,163.59931 326.48621,165.80684 326.48621,166.17836 C 326.48621,166.54987 325.42701,168.24631 324.13244,169.94823 C 316.52965,179.94327 308.44297,198.28486 304.03018,215.54262 C 303.11605,219.11761 301.65415,223.84262 300.7815,226.04262 C 299.90884,228.24261 299.04795,231.61761 298.86839,233.54262 C 298.68883,235.46762 298.10915,240.19261 297.58022,244.04262 C 297.05128,247.89262 296.6105,253.96762 296.6007,257.54262 C 296.59091,261.11761 295.948,267.85129 295.17201,272.50635 C 293.30653,283.69709 293.1203,294.46908 294.52121,310.14999 C 295.50593,321.17226 296.02215,323.50441 298.07962,326.2259 C 301.49927,330.74918 301.21156,332.98444 297.04509,334.26317 C 294.54244,335.03125 291.99484,334.98347 287.70373,334.08801 C 279.14286,332.30151 279.15422,332.31524 279.88939,324.66172 C 280.24755,320.93306 280.07092,316.51423 279.48491,314.54262 C 276.50306,304.51038 275.05433,277.77613 276.87255,266.33542 C 277.98365,259.34406 273.86628,261.4121 271.48264,269.04262 C 270.79539,271.24261 269.61445,274.85924 268.85831,277.07956 C 266.59048,283.73885 265.41556,296.39638 266.35551,304.04262 C 266.86078,308.15293 266.83974,312.04888 266.30454,313.48021 C 265.80323,314.82089 265.34618,319.21967 265.28887,323.25528 C 265.19953,329.547 265.50167,330.93018 267.40888,332.96031 L 269.63309,335.32787 L 267.37109,337.43524 C 265.49603,339.18212 263.90114,339.53178 258.04765,339.47922 C 254.16386,339.44436 249.92324,338.9902 248.62406,338.46996 z "
     style="fill:black;fill-opacity:1"
     id="path2213" />
  <path
     d="M 510.57619,336.58681 C 510.43632,336.52421 510.33517,336.41439 510.26914,336.25345 C 510.21499,336.12144 510.05312,335.91077 509.90944,335.78529 C 509.65809,335.5658 509.64773,335.54175 509.63622,335.15077 C 509.62963,334.92726 509.62125,334.69867 509.61759,334.64278 C 509.61392,334.5869 509.4396,334.36825 509.23021,334.1569 C 509.02082,333.94554 508.84999,333.72001 508.85058,333.65571 C 508.85118,333.59141 508.9078,333.32464 508.9764,333.0629 C 509.04508,332.80084 509.10213,332.37318 509.10334,332.11112 C 509.10456,331.84938 509.13342,331.37825 509.16747,331.06415 C 509.23494,330.44178 509.18293,329.92435 508.96337,329.03368 C 508.88851,328.72999 508.82754,328.22016 508.8116,327.76463 C 508.79398,327.26061 508.74442,326.8745 508.66502,326.62249 C 508.50354,326.10997 508.35848,325.43601 508.30944,324.97034 C 508.26451,324.54379 508.36245,323.49674 508.49382,322.9991 C 508.56674,322.7229 508.56588,322.64351 508.48802,322.45975 C 508.43781,322.34124 508.35528,322.08723 508.30463,321.89529 C 508.19205,321.46863 508.02477,319.34089 508.02468,318.3344 C 508.0246,317.46498 507.91981,316.80984 507.61598,315.77917 C 507.31365,314.75362 507.28883,314.74053 507.19786,315.55848 C 507.16538,315.85048 507.10988,316.20924 507.07453,316.35572 C 507.03917,316.50219 507.01012,316.68779 507.00997,316.76816 C 507.00982,316.84853 506.99992,317.68523 506.98796,318.62749 C 506.96858,320.15474 506.95079,320.39985 506.82398,320.88557 L 506.68172,321.43043 L 506.8436,321.96426 C 507.11701,322.86586 507.2095,323.61167 507.13008,324.27435 C 507.09241,324.58866 507.02334,325.01714 506.97659,325.22654 C 506.92985,325.43593 506.87356,325.80713 506.85152,326.05142 C 506.82948,326.29571 506.78605,326.62408 506.75502,326.78112 C 506.72399,326.93816 506.65109,327.30936 506.59301,327.606 C 506.49894,328.08652 506.45361,329.57069 506.52927,329.69312 C 506.54288,329.71513 506.58527,330.18966 506.62348,330.74763 C 506.66169,331.30561 506.72486,332.00783 506.76387,332.30812 C 506.87279,333.14674 506.70684,333.37287 505.86568,333.53204 C 505.03079,333.69002 504.84943,333.84108 504.33397,334.80784 C 504.20575,335.04832 503.84505,335.2326 503.42947,335.26994 C 503.24776,335.28627 503.05167,335.3478 502.98015,335.41094 C 502.80134,335.56878 502.60046,335.61768 502.32326,335.57085 C 502.02232,335.52001 501.63193,335.18005 501.55118,334.89852 C 501.47022,334.61624 501.5713,334.0067 501.7459,333.72419 C 501.91911,333.44394 502.25018,333.19046 502.44679,333.18756 C 502.53075,333.18633 502.66567,333.14856 502.74663,333.10365 C 502.99587,332.96536 504.1424,331.78721 504.2626,331.54586 C 504.41741,331.23504 504.40102,330.33697 504.22313,329.38267 C 504.05284,328.46916 503.85399,327.44571 503.74233,326.90803 C 503.59576,326.2023 503.50842,325.58996 503.52787,325.40445 C 503.53814,325.30656 503.52608,325.19334 503.50107,325.15287 C 503.39008,324.9733 503.37735,323.57009 503.48037,322.87296 C 503.57123,322.2582 503.57306,322.13703 503.49485,321.91535 C 503.36656,321.55175 503.13879,320.39812 503.13879,320.112 C 503.13879,319.97849 503.09793,319.7469 503.048,319.59736 C 502.75212,318.71127 502.707,318.35686 502.62563,316.27976 C 502.59145,315.40729 502.53732,314.49357 502.50536,314.24928 C 502.47339,314.00499 502.42753,313.41889 502.40344,312.94683 C 502.35658,312.0285 502.42116,311.59665 502.71134,310.88797 C 502.80478,310.65979 502.85553,310.34336 502.8897,309.77589 C 502.98059,308.26642 503.05237,307.81887 503.32732,307.04744 C 503.62349,306.21645 503.66326,305.71351 503.48535,305.04869 C 503.32647,304.45498 503.20249,303.71287 503.14234,302.99561 C 503.11203,302.63419 503.05574,302.30699 503.01725,302.2685 C 502.96625,302.2175 502.86563,302.28384 502.64619,302.51319 C 502.40763,302.76252 502.2236,302.87726 501.75986,303.0658 C 501.43797,303.19667 501.14022,303.30375 501.09818,303.30375 C 501.05615,303.30375 500.73447,303.42155 500.38335,303.56554 C 499.77169,303.81635 499.72363,303.82589 499.23688,303.79305 C 498.64936,303.7534 498.12057,303.64644 497.97566,303.53793 C 497.91145,303.48986 497.81661,303.16853 497.71487,302.6544 C 497.44915,301.31163 497.51133,299.64426 497.90935,297.43977 C 498.02853,296.77964 498.12604,296.16574 498.12602,296.07554 C 498.126,295.98534 498.06591,295.7545 497.99249,295.56256 C 497.82831,295.13334 497.68245,294.27191 497.68212,293.72963 C 497.68199,293.50674 497.65099,293.07844 497.61323,292.77785 C 497.553,292.29836 497.55884,292.1885 497.66082,291.88232 C 497.79037,291.49336 497.97065,291.39874 498.19512,291.60187 C 498.33989,291.73289 498.31997,291.75128 498.52448,291.29775 C 498.65016,291.01904 498.72794,290.92522 498.86103,290.89181 C 498.99092,290.85922 499.05724,290.87843 499.12671,290.96877 C 499.17764,291.03499 499.23175,291.06061 499.24697,291.02572 C 499.42799,290.6106 499.50135,290.5181 499.6495,290.5181 C 499.78141,290.5181 499.81082,290.55218 499.82742,290.72432 C 499.84675,290.92478 499.97667,291.00408 500.06135,290.86709 C 500.14393,290.73344 500.2939,290.81319 500.38948,291.04158 C 500.47251,291.23999 500.48168,291.43869 500.44466,292.23754 C 500.40228,293.15168 500.45825,293.72244 500.59025,293.72244 C 500.61672,293.72244 500.75052,293.6076 500.88758,293.46724 C 501.29695,293.048 502.00961,292.95984 502.09933,293.31734 C 502.13342,293.45317 502.08433,293.53042 501.77886,293.8216 C 501.53128,294.0576 501.35846,294.29706 501.22788,294.58505 C 501.12323,294.81584 500.90696,295.14435 500.74727,295.31507 C 500.39537,295.69127 500.25202,296.08559 500.11521,297.05369 C 499.94017,298.29219 500.07244,299.75194 500.3595,299.7498 C 500.40491,299.74946 500.5655,299.65105 500.71638,299.5311 C 500.86726,299.41116 501.08141,299.28303 501.19228,299.24637 C 501.34376,299.19628 501.4569,299.07392 501.64766,298.75386 C 501.99141,298.17708 502.69622,297.65959 503.39691,297.4695 C 503.66103,297.39785 503.95484,297.33922 504.04983,297.33922 C 504.22194,297.33922 504.46536,297.22614 504.94718,296.92238 C 505.08677,296.83437 505.40787,296.66292 505.66072,296.54138 C 505.91358,296.41985 506.16177,296.25697 506.21225,296.17943 C 506.26274,296.10189 506.32302,295.8243 506.34621,295.56256 C 506.3811,295.1687 506.36561,295.02221 506.25631,294.71272 C 506.18368,294.50706 506.08379,294.2929 506.03434,294.23683 C 505.93238,294.12123 505.61413,293.34718 505.61209,293.20984 C 505.61093,293.13217 505.47571,292.73214 505.22098,292.0528 C 505.16783,291.91106 505.18175,291.78988 505.28856,291.46453 C 505.36254,291.23916 505.42317,290.9483 505.4233,290.81816 C 505.42361,290.51622 505.60814,290.21297 505.8534,290.11139 C 505.96708,290.0643 506.12401,289.90485 506.23947,289.71911 C 506.44121,289.39457 506.62733,289.28078 506.95635,289.28078 C 507.06526,289.28078 507.30461,289.1848 507.50743,289.05981 C 508.25704,288.59783 508.95937,288.66119 509.46436,289.23636 C 509.56862,289.35509 509.72526,289.47015 509.81246,289.49203 C 510.07668,289.55835 510.29278,289.77361 510.41324,290.09047 C 510.47611,290.25587 510.63533,290.58775 510.76706,290.828 C 511.11727,291.46671 511.16906,291.70755 511.03335,292.0663 C 510.97261,292.22685 510.8804,292.42401 510.82844,292.50443 C 510.77647,292.58485 510.73729,292.7419 510.74136,292.85342 C 510.75254,293.15892 510.63864,293.44586 510.45963,293.56315 C 510.16981,293.75305 509.80128,294.7647 509.80128,295.37039 C 509.80128,295.70949 510.08677,296.06684 510.75572,296.5651 C 511.0509,296.78496 511.40801,297.07793 511.54931,297.21616 C 511.80845,297.46967 511.915,297.50645 512.7465,297.62944 C 512.93852,297.65784 513.08567,297.75327 513.39402,298.04936 C 513.74474,298.38614 513.82852,298.51656 514.08603,299.12662 L 514.379,299.82072 L 514.36187,300.65804 C 514.35154,301.16283 514.37157,301.54575 514.41232,301.62226 C 514.58073,301.9385 514.6516,302.66398 514.64169,303.97 C 514.63226,305.21238 514.64278,305.34755 514.79708,305.96875 C 515.01773,306.85705 515.02753,308.18046 514.81964,309.01446 C 514.74569,309.3111 514.63072,309.79651 514.56416,310.09315 C 514.4976,310.38979 514.41032,310.71816 514.37021,310.82285 C 514.26484,311.09788 513.85726,313.15014 513.79683,313.70994 C 513.67413,314.84674 513.55673,315.41612 513.40156,315.62698 C 513.31713,315.74172 513.18706,315.9565 513.11251,316.10428 C 513.03796,316.25206 512.85035,316.5284 512.69562,316.71838 C 512.38498,317.09975 512.37209,317.12945 512.28001,317.67571 C 512.15681,318.40655 511.96274,319.17093 511.82467,319.46915 C 511.71154,319.7135 511.68242,319.90595 511.66874,320.49934 C 511.6595,320.90067 511.61935,321.46682 511.57952,321.75743 C 511.53322,322.0952 511.52899,322.31266 511.56778,322.36023 C 511.60116,322.40115 511.70455,322.7456 511.79753,323.12568 C 512.0102,323.99494 512.12381,325.50352 512.0322,326.24178 C 511.89146,327.37593 511.63886,328.69417 511.30877,330.01719 C 511.1901,330.49282 511.10636,331.00086 511.0996,331.28624 C 511.0934,331.54798 511.06713,331.88557 511.04124,332.03645 C 511.00077,332.27219 511.0211,332.36144 511.18577,332.67098 C 511.29116,332.86909 511.45233,333.23105 511.54392,333.47534 C 511.63551,333.71964 511.79129,334.09083 511.89011,334.30023 C 512.29872,335.16611 512.33935,335.26703 512.33878,335.41481 C 512.33806,335.60247 512.03161,336.14853 511.81292,336.35186 C 511.53983,336.60577 510.89311,336.72863 510.57619,336.58681 z M 512.32482,311.967 C 512.45273,311.58294 512.54063,309.66764 512.46143,308.9903 C 512.42423,308.67205 512.40029,307.95481 512.40825,307.39642 C 512.42173,306.45046 512.412,306.35301 512.26561,305.96815 C 512.10199,305.53802 511.91426,305.20732 511.8337,305.20732 C 511.76742,305.20732 511.51405,306.0885 511.5143,306.31815 C 511.5144,306.42308 511.54242,306.60629 511.57654,306.72528 C 511.69261,307.13 511.79168,308.53887 511.71876,308.74801 C 511.6653,308.90138 511.67745,309.02304 511.77815,309.3425 C 511.86812,309.62792 511.92165,310.05634 511.96313,310.82285 C 512.02835,312.02798 512.0637,312.2682 512.17066,312.23317 C 512.2111,312.21993 512.28048,312.10015 512.32482,311.967 z "
     style="fill:black;fill-opacity:1"
     id="path2084" />
  <g
     id="g1907">
    <path
       d="M 520.86291,289.7263 L 520.86291,335.75421"
       style="fill:none;fill-rule:evenodd;stroke:black;stroke-width:1px;stroke-linecap:butt;stroke-linejoin:miter;stroke-opacity:1"
       id="path3114" />
    <path
       d="M 517.90954,289.41933 L 523.81627,289.41933"
       style="fill:none;fill-rule:evenodd;stroke:black;stroke-width:1px;stroke-linecap:butt;stroke-linejoin:miter;stroke-opacity:1"
       id="path3118" />
    <path
       d="M 517.90954,336.1233 L 523.81627,336.1233"
       style="fill:none;fill-rule:evenodd;stroke:black;stroke-width:1px;stroke-linecap:butt;stroke-linejoin:miter;stroke-opacity:1"
       id="path3120" />
  </g>
  <g
     transform="translate(-151.7521,-82.80465)"
     id="g3140">
    <path
       d="M 152.25212,432.47846 L 618.78042,432.47846"
       style="fill:none;fill-rule:evenodd;stroke:black;stroke-width:1px;stroke-linecap:butt;stroke-linejoin:miter;stroke-opacity:1"
       id="path3127" />
    <path
       d="M 618.46516,439.09812 L 618.46516,425.8588"
       style="fill:none;fill-rule:evenodd;stroke:black;stroke-width:1px;stroke-linecap:butt;stroke-linejoin:miter;stroke-opacity:1"
       id="path3129" />
    <path
       d="M 152.56736,439.09813 L 152.56736,425.85881"
       style="fill:none;fill-rule:evenodd;stroke:black;stroke-width:1px;stroke-linecap:butt;stroke-linejoin:miter;stroke-opacity:1"
       id="path3131" />
  </g>
  <text
     x="163.59396"
     y="367.41525"
     style="font-size:16px"
     id="text3145"
     xml:space="preserve"><tspan
       x="163.59396"
       y="367.41525"
       id="tspan3147">25 Meters (82 Feet)</tspan></text>
  <text
     x="531.04816"
     y="307.43683"
     style="font-size:16px"
     id="text3149"
     xml:space="preserve"><tspan
       x="531.04816"
       y="307.43683"
       style="font-size:16px"
       id="tspan3151">1,8 Meters</tspan><tspan
       x="531.04816"
       y="327.43683"
       style="font-size:16px"
       id="tspan3153">(6 Feet)</tspan></text>
</svg>
