<?xml version="1.0" encoding="UTF-8" standalone="no"?>
<!-- Created with Inkscape (http://www.inkscape.org/) -->

<svg
   xmlns:dc="http://purl.org/dc/elements/1.1/"
   xmlns:cc="http://creativecommons.org/ns#"
   xmlns:rdf="http://www.w3.org/1999/02/22-rdf-syntax-ns#"
   xmlns:svg="http://www.w3.org/2000/svg"
   xmlns="http://www.w3.org/2000/svg"
   xmlns:sodipodi="http://sodipodi.sourceforge.net/DTD/sodipodi-0.dtd"
   xmlns:inkscape="http://www.inkscape.org/namespaces/inkscape"
   version="1.0"
   width="464.87"
   height="169.21001"
   id="svg2"
   inkscape:version="0.48.4 r9939"
   sodipodi:docname="Human-triceratops_size_comparison.svg">
  <metadata
     id="metadata19">
    <rdf:RDF>
      <cc:Work
         rdf:about="">
        <dc:format>image/svg+xml</dc:format>
        <dc:type
           rdf:resource="http://purl.org/dc/dcmitype/StillImage" />
      </cc:Work>
    </rdf:RDF>
  </metadata>
  <sodipodi:namedview
     pagecolor="#ffffff"
     bordercolor="#666666"
     borderopacity="1"
     objecttolerance="10"
     gridtolerance="10"
     guidetolerance="10"
     inkscape:pageopacity="0"
     inkscape:pageshadow="2"
     inkscape:window-width="1631"
     inkscape:window-height="816"
     id="namedview17"
     showgrid="false"
     inkscape:zoom="2.3181336"
     inkscape:cx="203.56908"
     inkscape:cy="80.635975"
     inkscape:window-x="0"
     inkscape:window-y="0"
     inkscape:window-maximized="0"
     inkscape:current-layer="svg2" />
  <defs
     id="defs4">
    <marker
       refX="0"
       refY="0"
       orient="auto"
       style="overflow:visible"
       id="Arrow1Lstart">
      <path
         d="M 0,0 L 5,-5 L -12.5,0 L 5,5 L 0,0 z "
         transform="matrix(0.8,0,0,0.8,10,0)"
         style="fill-rule:evenodd;stroke:black;stroke-width:1pt;marker-start:none"
         id="path7339" />
    </marker>
    <marker
       refX="0"
       refY="0"
       orient="auto"
       style="overflow:visible"
       id="Arrow1Lend">
      <path
         d="M 0,0 L 5,-5 L -12.5,0 L 5,5 L 0,0 z "
         transform="matrix(-0.8,0,0,-0.8,-10,0)"
         style="fill-rule:evenodd;stroke:black;stroke-width:1pt;marker-start:none"
         id="path7336" />
    </marker>
  </defs>
  <path
     d="m 381.07985,143.92777 c -0.19797,-0.0886 -0.34113,-0.24404 -0.43458,-0.47183 -0.0766,-0.18684 -0.30576,-0.48502 -0.50911,-0.66261 -0.35575,-0.31067 -0.37041,-0.3447 -0.3867,-0.89809 -0.009,-0.31634 -0.0212,-0.63987 -0.0264,-0.71898 -0.005,-0.0791 -0.25192,-0.38855 -0.54828,-0.68769 -0.29637,-0.29916 -0.53816,-0.61836 -0.53732,-0.70937 8.6e-4,-0.091 0.081,-0.46859 0.17808,-0.83904 0.0972,-0.3709 0.17796,-0.9762 0.17967,-1.34711 0.002,-0.37046 0.0426,-1.03728 0.0908,-1.48184 0.0955,-0.88088 0.0219,-1.61322 -0.28886,-2.87385 -0.10597,-0.42983 -0.19226,-1.15142 -0.21482,-1.79616 -0.0249,-0.71337 -0.0951,-1.25985 -0.20747,-1.61655 -0.22854,-0.72539 -0.43385,-1.67928 -0.50326,-2.33838 -0.0636,-0.60372 0.075,-2.08567 0.26096,-2.79001 0.10321,-0.39092 0.10199,-0.50329 -0.008,-0.76338 -0.0711,-0.16773 -0.18788,-0.52725 -0.25957,-0.79891 -0.15934,-0.60388 -0.3961,-3.6154 -0.39622,-5.03994 -1.2e-4,-1.23055 -0.14843,-2.15781 -0.57846,-3.61657 -0.42791,-1.45153 -0.46304,-1.47006 -0.59179,-0.31236 -0.046,0.41328 -0.12453,0.92105 -0.17456,1.12838 -0.05,0.20731 -0.0912,0.47 -0.0914,0.58375 -2.1e-4,0.11375 -0.0142,1.29799 -0.0311,2.63162 -0.0274,2.16161 -0.0526,2.50853 -0.23209,3.196 l -0.20135,0.77117 0.22912,0.75557 c 0.38698,1.27609 0.51788,2.33168 0.40547,3.26961 -0.0533,0.44485 -0.15107,1.05131 -0.21725,1.34768 -0.0661,0.29637 -0.14581,0.82175 -0.17701,1.1675 -0.0312,0.34577 -0.0927,0.81053 -0.13658,1.0328 -0.0439,0.22227 -0.1471,0.74765 -0.22931,1.1675 -0.13314,0.68012 -0.1973,2.78074 -0.0902,2.95403 0.0193,0.0311 0.0793,0.70278 0.13334,1.49251 0.0541,0.78974 0.1435,1.78364 0.19871,2.20865 0.15416,1.18696 -0.0807,1.50701 -1.27127,1.73229 -1.18167,0.2236 -1.43836,0.4374 -2.16792,1.80572 -0.18147,0.34037 -0.69199,0.60119 -1.28019,0.65404 -0.25719,0.0231 -0.53473,0.1102 -0.63596,0.19957 -0.25307,0.2234 -0.53739,0.29261 -0.92973,0.22632 -0.42594,-0.0719 -0.97848,-0.55311 -1.09277,-0.95158 -0.11459,-0.39953 0.0285,-1.26225 0.27559,-1.6621 0.24516,-0.39666 0.71375,-0.75543 0.99203,-0.75952 0.11882,-0.002 0.30978,-0.0552 0.42437,-0.11878 0.35277,-0.19573 1.97552,-1.86323 2.14565,-2.20482 0.21911,-0.43993 0.19591,-1.71103 -0.0559,-3.0617 -0.24103,-1.29295 -0.52247,-2.74149 -0.68051,-3.50251 -0.20745,-0.99887 -0.33106,-1.86554 -0.30354,-2.12811 0.0145,-0.13854 -0.003,-0.29879 -0.0379,-0.35607 -0.1571,-0.25415 -0.17511,-2.2402 -0.0293,-3.2269 0.1286,-0.87011 0.1312,-1.0416 0.0205,-1.35536 -0.18158,-0.51463 -0.50397,-2.14743 -0.50397,-2.55239 0,-0.18896 -0.0578,-0.51675 -0.12849,-0.72841 -0.41878,-1.25413 -0.48263,-1.75574 -0.5978,-4.69559 -0.0484,-1.23486 -0.125,-2.5281 -0.17023,-2.87386 -0.0453,-0.34576 -0.11016,-1.1753 -0.14426,-1.84345 -0.0663,-1.29976 0.0251,-1.91098 0.4358,-2.91402 0.13225,-0.32296 0.20407,-0.77082 0.25244,-1.574 0.12864,-2.13643 0.23023,-2.76988 0.61939,-3.86173 0.41918,-1.17615 0.47548,-1.888 0.22366,-2.828952 -0.22487,-0.840314 -0.40034,-1.890665 -0.48548,-2.905845 -0.0429,-0.511548 -0.12257,-0.97465 -0.17704,-1.029126 -0.0722,-0.07219 -0.2146,0.02171 -0.52518,0.346323 -0.33766,0.352896 -0.59813,0.515288 -1.25449,0.782147 -0.45558,0.185226 -0.87701,0.33678 -0.93651,0.33678 -0.0595,0 -0.51478,0.16673 -1.01174,0.370526 -0.86572,0.354984 -0.93375,0.368494 -1.62267,0.322007 -0.83155,-0.05611 -1.57998,-0.207503 -1.78509,-0.36108 -0.0909,-0.06803 -0.2251,-0.52284 -0.36911,-1.250519 -0.37608,-1.9005 -0.28807,-4.260435 0.27527,-7.380582 0.16868,-0.934315 0.30669,-1.803211 0.30666,-1.930878 -2e-5,-0.127658 -0.0851,-0.454385 -0.18899,-0.726052 -0.23237,-0.607492 -0.43882,-1.826727 -0.43929,-2.594255 -1.7e-4,-0.315467 -0.0441,-0.921664 -0.0975,-1.347111 -0.0853,-0.678651 -0.077,-0.834147 0.0674,-1.267502 0.18336,-0.550515 0.43852,-0.68443 0.75623,-0.39693 0.2049,0.185437 0.1767,0.211469 0.46615,-0.430441 0.17789,-0.394477 0.28798,-0.52726 0.47634,-0.574556 0.18384,-0.04612 0.27771,-0.01893 0.37604,0.108928 0.0721,0.09373 0.14867,0.12999 0.17021,0.08061 0.25621,-0.587539 0.36004,-0.71846 0.56973,-0.71846 0.18669,0 0.22832,0.04823 0.25182,0.291872 0.0274,0.283728 0.21124,0.395958 0.33109,0.202071 0.11689,-0.189161 0.32914,-0.07628 0.46442,0.246963 0.11752,0.280823 0.1305,0.562058 0.0781,1.692722 -0.06,1.293833 0.0192,2.101664 0.20606,2.101664 0.0375,0 0.22684,-0.162538 0.42083,-0.361201 0.57941,-0.593375 1.58808,-0.718152 1.71506,-0.212157 0.0482,0.192245 -0.0212,0.301585 -0.45358,0.713709 -0.35041,0.334019 -0.59502,0.672944 -0.77984,1.080559 -0.14811,0.326645 -0.45421,0.791601 -0.68023,1.033238 -0.49807,0.532457 -0.70096,1.090564 -0.8946,2.460769 -0.24774,1.752929 -0.0605,3.819001 0.34576,3.815966 0.0643,-4.78e-4 0.29157,-0.13976 0.50511,-0.309534 0.21355,-0.169758 0.51665,-0.351107 0.67358,-0.402993 0.2144,-0.0709 0.37453,-0.244081 0.64452,-0.697082 0.48653,-0.816346 1.48409,-1.548785 2.47582,-1.81783 0.37383,-0.101416 0.78968,-0.184401 0.92412,-0.184401 0.24359,0 0.58812,-0.160044 1.27007,-0.589976 0.19757,-0.124558 0.65205,-0.367223 1.00991,-0.539247 0.3579,-0.172008 0.70918,-0.402548 0.78062,-0.512293 0.0715,-0.109745 0.15678,-0.502636 0.18961,-0.873097 0.0494,-0.557452 0.0274,-0.764793 -0.12725,-1.202827 -0.10279,-0.291086 -0.24417,-0.594201 -0.31416,-0.673559 -0.14431,-0.163614 -0.59475,-1.259173 -0.59764,-1.453562 -0.002,-0.109923 -0.19303,-0.676118 -0.55356,-1.637623 -0.0752,-0.200614 -0.0555,-0.372128 0.0957,-0.832616 0.1047,-0.318972 0.19052,-0.73065 0.19071,-0.914841 4.3e-4,-0.427365 0.26161,-0.856568 0.60874,-1.000334 0.16091,-0.06666 0.38301,-0.292333 0.54643,-0.555226 0.28553,-0.459331 0.54895,-0.620395 1.01465,-0.620395 0.15414,0 0.49291,-0.135842 0.77997,-0.312755 1.06097,-0.653858 2.05502,-0.564187 2.76976,0.249885 0.14757,0.16805 0.36927,0.330903 0.49268,0.361873 0.37398,0.09386 0.67984,0.398532 0.85032,0.847 0.089,0.234109 0.31435,0.703841 0.50079,1.043875 0.49568,0.904002 0.56897,1.244885 0.3769,1.752645 -0.086,0.227229 -0.21649,0.506279 -0.29003,0.620112 -0.0736,0.113825 -0.12901,0.3361 -0.12324,0.493943 0.0158,0.432392 -0.14539,0.838517 -0.39875,1.004519 -0.4102,0.268778 -0.93181,1.70063 -0.93181,2.557894 0,0.479956 0.40408,0.985732 1.35088,1.69095 0.41778,0.311185 0.92323,0.72585 1.12322,0.921494 0.36677,0.358797 0.51758,0.41086 1.69445,0.584933 0.27178,0.0402 0.48005,0.17527 0.91647,0.594338 0.4964,0.476669 0.61498,0.661256 0.97945,1.524713 l 0.41466,0.982405 -0.0242,1.185108 c -0.0146,0.714461 0.0137,1.256428 0.0714,1.364716 0.23836,0.447594 0.33867,1.474413 0.32464,3.322898 -0.0133,1.758417 0.002,1.94973 0.21993,2.828953 0.3123,1.25727 0.32617,3.13037 0.0319,4.31078 -0.10467,0.41985 -0.26738,1.10688 -0.36159,1.52674 -0.0942,0.41984 -0.21775,0.88461 -0.27451,1.03278 -0.14914,0.38927 -0.72601,3.29396 -0.81154,4.08627 -0.17366,1.60899 -0.33982,2.41486 -0.55945,2.71331 -0.1195,0.1624 -0.30359,0.46639 -0.40911,0.67555 -0.10552,0.20917 -0.37105,0.60028 -0.59005,0.86917 -0.43966,0.53978 -0.45791,0.58181 -0.58824,1.35497 -0.17437,1.0344 -0.44905,2.11628 -0.64447,2.53836 -0.16012,0.34585 -0.20133,0.61824 -0.22069,1.4581 -0.0131,0.56803 -0.0699,1.36933 -0.12629,1.78065 -0.0655,0.47806 -0.0715,0.78585 -0.0166,0.85317 0.0472,0.0579 0.19358,0.54544 0.32518,1.0834 0.301,1.2303 0.4618,3.3655 0.33215,4.4104 -0.19921,1.60523 -0.55673,3.47102 -1.02393,5.34357 -0.16796,0.67318 -0.28648,1.39224 -0.29604,1.79616 -0.009,0.37045 -0.046,0.84827 -0.0826,1.06182 -0.0573,0.33365 -0.0285,0.45998 0.20456,0.89808 0.14916,0.2804 0.37727,0.79271 0.50691,1.13846 0.12963,0.34578 0.35012,0.87114 0.48998,1.16752 0.57834,1.22553 0.63584,1.36838 0.63503,1.57754 -0.001,0.2656 -0.43475,1.03847 -0.74427,1.32625 -0.38653,0.35938 -1.30187,0.53327 -1.75043,0.33255 z m 2.47494,-34.84591 c 0.18104,-0.54358 0.30545,-3.25443 0.19336,-4.21311 -0.0527,-0.45043 -0.0865,-1.46559 -0.0753,-2.25591 0.0191,-1.33887 0.005,-1.4768 -0.20188,-2.02152 -0.23158,-0.608789 -0.49729,-1.076845 -0.61131,-1.076845 -0.0938,0 -0.45241,1.247185 -0.45206,1.572225 1.3e-4,0.14851 0.0398,0.40783 0.0881,0.57623 0.16428,0.57283 0.3045,2.56689 0.20129,2.8629 -0.0757,0.21707 -0.0585,0.38926 0.0841,0.84141 0.12735,0.40397 0.2031,1.01034 0.26181,2.09523 0.0923,1.70569 0.14234,2.04569 0.29373,1.99611 0.0572,-0.0187 0.15544,-0.18827 0.21819,-0.37672 z"
     style="fill:#000000;fill-opacity:1"
     id="path2084"
     inkscape:connector-curvature="0" />
  <text
     x="118.68727"
     y="160.20802"
     style="font-size:12.95120049px"
     id="text3145"
     xml:space="preserve"><tspan
       x="118.68727"
       y="160.20802"
       id="tspan3147">8-9 Metres (26-30 Feet)</tspan></text>
  <text
     x="401.8728"
     y="110.57633"
     style="font-size:12.95120049px"
     id="text3149"
     xml:space="preserve"><tspan
       x="401.8728"
       y="110.57633"
       style="font-size:12.95120049px"
       id="tspan3151">1,8 Metres</tspan><tspan
       x="401.8728"
       y="126.76534"
       style="font-size:12.95120049px"
       id="tspan3153">(6 Feet)</tspan></text>
  <path
     d="m 387.93934,76.919772 6.1293,0 6.12921,0 -6.12921,0 0,66.871168 6.12921,0 -12.25851,0"
     style="fill:none;stroke:#000000;stroke-width:0.80945033;stroke-linecap:butt;stroke-linejoin:miter;stroke-miterlimit:4;stroke-opacity:1;stroke-dasharray:none"
     id="path6435"
     inkscape:connector-curvature="0" />
  <path
     d="m 305.62701,137.15676 0,6.10018 0,6.1001 0,-6.1001 -289.860067,0 0,6.1001 0,-12.20028"
     style="fill:none;stroke:#000000;stroke-width:0.86767572;stroke-linecap:butt;stroke-linejoin:miter;stroke-miterlimit:4;stroke-opacity:1;stroke-dasharray:none"
     id="path2898"
     inkscape:connector-curvature="0" />
  <path
     inkscape:connector-curvature="0"
     id="path3020"
     style="fill:none;stroke:#000000;stroke-width:0.93038166;stroke-linecap:butt;stroke-linejoin:miter;stroke-miterlimit:4;stroke-opacity:1;stroke-dasharray:none"
     d="m 350.78967,137.18811 0,6.06883 0,6.06875 0,-6.06875 -334.991374,0 0,6.06875 0,-12.13758" />
  <path
     inkscape:connector-curvature="0"
     id="path3022"
     style="fill:#000000"
     d="m 241.32111,146.62521 c -0.14414,-0.23321 -1.92338,-0.42402 -3.95385,-0.42402 -4.02663,0 -6.50764,-0.86865 -6.80226,-2.38157 -0.0855,-0.43926 -0.48702,-1.27563 -0.89219,-1.85866 -0.40519,-0.58303 -0.85109,-1.92861 -0.99093,-2.99016 -0.43459,-3.29935 -2.32122,-8.54774 -4.10748,-11.42665 -1.87878,-3.02801 -4.29188,-7.88259 -5.03729,-10.13384 -0.26248,-0.79275 -0.47725,-3.57661 -0.47725,-6.18638 l 0,-4.74501 -4.05869,-0.4988 c -3.76416,-0.46258 -4.13226,-0.44096 -5.07184,0.29812 -0.5572,0.43829 -2.78549,1.42567 -4.95177,2.19414 -2.16628,0.76848 -4.25681,1.66847 -4.64561,1.99997 -0.94598,0.80658 -1.29981,3.72096 -1.37771,11.34748 -0.0448,4.38332 -0.23978,6.67562 -0.6274,7.37465 -0.30937,0.55784 -0.92448,2.27513 -1.36694,3.81622 -0.69467,2.41944 -0.73584,3.11049 -0.30167,5.06254 0.4201,1.88873 0.40324,2.32747 -0.1024,2.66695 -1.05911,0.71104 -4.51859,-0.0278 -7.48538,-1.5987 -4.3193,-2.28704 -4.99487,-2.88372 -6.23846,-5.51027 -1.32896,-2.80679 -1.20665,-3.91173 0.63709,-5.75547 2.56053,-2.56051 2.90572,-4.90463 1.61686,-10.97965 -0.60464,-2.85009 -0.92084,-5.76433 -0.89581,-8.25666 l 0.0386,-3.85186 -5.16372,-0.72533 c -2.84006,-0.39893 -5.58857,-0.81472 -6.10781,-0.92398 -0.77603,-0.16328 -1.13415,0.16088 -2.0118,1.82105 -2.30199,4.35446 -3.05248,5.51218 -4.53292,6.99263 -1.76983,1.76982 -3.85067,5.94204 -4.49854,9.01982 -1.42811,6.78448 0.41231,13.5899 4.98812,18.44504 3.57904,3.79749 3.69764,4.49743 0.98249,5.79829 -1.31791,0.63142 -2.67071,0.77406 -7.34002,0.77406 l -5.7243,0 -1.42293,-1.37807 c -0.7826,-0.75794 -1.65091,-1.37807 -1.92956,-1.37807 -0.27868,0 -0.99968,-0.23266 -1.60224,-0.51702 -0.95486,-0.45063 -1.1309,-0.86184 -1.37061,-3.20174 -0.15128,-1.4766 -0.67708,-3.75919 -1.16844,-5.07246 -0.86742,-2.31839 -0.87301,-2.47477 -0.19256,-5.38474 0.80263,-3.4324 0.87015,-5.34531 0.26311,-7.45204 -0.23475,-0.81471 -0.71782,-2.91235 -1.07346,-4.66147 -1.00415,-4.93851 -1.86631,-7.63242 -2.44264,-7.63242 -0.91138,0 -7.23455,3.87053 -8.57974,5.25182 -2.06865,2.12415 -2.21345,2.41496 -3.37364,6.77529 -1.6345,6.143 -1.37111,7.29163 2.54097,11.08218 4.02366,3.89864 4.40464,4.63146 3.11918,5.99977 -0.95432,1.01582 -1.10979,1.03854 -5.86665,0.85676 -8.84328,-0.33793 -10.46427,-1.16525 -11.23626,-5.73461 -0.20913,-1.23782 -0.76426,-2.27149 -1.74852,-3.25575 -1.70259,-1.70259 -1.81042,-2.83235 -0.57946,-6.07108 0.77771,-2.0461 0.81688,-2.59985 0.39973,-5.64668 -0.42457,-3.10078 -0.39006,-3.52777 0.42028,-5.20169 0.49614,-1.02491 2.52854,-3.39541 4.64048,-5.41242 3.88282,-3.70834 4.63412,-4.77828 5.79809,-8.25715 1.14662,-3.427 3.1453,-7.497476 4.254,-8.663577 l 1.0498,-1.104168 -1.18608,-0.772561 c -0.65237,-0.424919 -2.808,-2.329826 -4.79031,-4.23315 -4.47892,-4.300432 -5.77852,-4.787613 -16.32492,-6.119878 -1.86569,-0.23569 -5.58004,-0.723198 -8.25409,-1.083368 -4.611485,-0.621124 -5.223033,-0.609313 -11.872658,0.229227 -13.950782,1.75925 -20.137842,2.823244 -28.635956,4.924565 -1.399273,0.345993 -5.028104,0.736793 -8.064032,0.86845 C 50.509553,83.963464 49.554036,83.875418 43.55674,82.634138 35.859799,81.041077 32.856661,80.059664 29.328591,77.984419 25.586587,75.783321 14.063263,66.721462 14.811497,66.568282 c 0.345144,-0.07068 2.412684,0.4396 4.594515,1.133928 5.646674,1.796934 7.878127,2.174725 12.845503,2.174725 5.436391,0 10.010207,-0.830231 16.482129,-2.991799 2.754137,-0.919851 5.268751,-1.672454 5.588031,-1.672454 0.319268,0 0.880345,-0.299845 1.246825,-0.66633 0.366468,-0.366476 0.666313,-0.569792 0.666313,-0.451808 0,0.117969 1.889985,-0.714804 4.199948,-1.850633 2.309989,-1.13583 4.972747,-2.273234 5.917256,-2.527557 0.94451,-0.254333 2.012099,-0.757228 2.372416,-1.117534 0.360315,-0.360317 0.655121,-0.544712 0.655121,-0.40979 0,0.367178 10.316155,-4.991097 14.204785,-7.378067 1.865706,-1.145226 4.060025,-2.457403 4.876267,-2.915953 0.816254,-0.458539 2.021433,-1.298326 2.678181,-1.866176 0.656773,-0.56786 2.660274,-1.857662 4.452247,-2.866226 1.791983,-1.008559 5.643286,-3.40139 8.558456,-5.317386 5.03793,-3.311208 13.77705,-8.213123 16.96676,-9.516954 0.81304,-0.332338 2.33691,-1.198766 3.38637,-1.925381 1.87766,-1.300028 8.56839,-3.99314 14.01136,-5.639735 8.01133,-2.423573 16.96084,-2.739882 26.05889,-0.921 6.52117,1.303712 13.66244,1.562638 17.66144,0.64038 3.73983,-0.862497 11.29402,-0.992262 15.20038,-0.261114 3.21467,0.60169 13.69884,4.627405 20.98917,8.059417 5.30142,2.495718 6.55784,3.177552 13.56875,7.363604 3.56396,2.127965 4.57837,2.540606 6.36035,2.587238 l 2.12012,0.05549 -0.0515,-1.484077 c -0.0284,-0.816244 -0.19489,-2.190101 -0.37007,-3.053024 -0.3013,-1.48396 -0.25256,-1.583499 0.89956,-1.837516 2.25434,-0.497041 2.20525,-0.426086 1.79915,-2.59981 -0.56545,-3.026659 -0.37564,-3.243488 2.54261,-2.904794 l 2.48249,0.288124 0.48311,-1.918631 c 0.26573,-1.05525 0.48312,-2.32532 0.48312,-2.822372 0,-0.805144 0.2197,-0.896179 2.01412,-0.834608 2.99516,0.102774 2.94717,0.123161 3.96255,-1.683463 1.12418,-2.00017 2.81422,-2.588802 4.41724,-1.538463 0.99532,0.652163 1.05366,0.631502 1.68975,-0.598551 0.74213,-1.435101 0.8264,-1.459556 2.73608,-0.793839 1.25324,0.436888 1.4709,0.379505 2.41256,-0.636035 1.32547,-1.429468 2.00772,-1.40639 3.36213,0.1137 0.8701,0.976522 1.35721,1.188769 2.36408,1.030074 1.52937,-0.241027 3.33095,0.81652 3.33095,1.95531 0,1.377232 0.48234,2.153399 1.7435,2.805562 1.71347,0.886071 2.67424,2.455758 2.12789,3.476595 -0.33865,0.632798 -0.20826,1.039994 0.61863,1.931757 0.6593,0.711021 1.06846,1.680593 1.10359,2.615146 0.0317,0.844242 0.39223,1.789627 0.83532,2.190605 0.94558,0.855746 0.99052,1.567075 0.14345,2.270087 -0.83414,0.69227 -0.79253,3.142671 0.1621,9.545201 0.57939,3.88589 1.02285,5.510328 1.87105,6.853959 2.08424,3.301653 3.05229,3.560401 9.20347,2.460006 1.9823,-0.354625 6.84798,-0.832134 10.81261,-1.061143 3.9646,-0.229016 8.63946,-0.597255 10.38857,-0.818301 3.95486,-0.499815 11.56913,-2.094363 11.86478,-2.484658 0.12096,-0.159646 0.50611,-0.309379 0.85593,-0.332735 0.34982,-0.02334 1.06535,-0.179317 1.59008,-0.346585 0.71679,-0.228503 0.95407,-0.136518 0.95407,0.369811 0,0.928881 -3.32053,2.949713 -7.40224,4.504946 -1.8757,0.714683 -4.18615,1.667366 -5.13432,2.117074 -0.94819,0.44969 -1.95254,0.81763 -2.23189,0.81763 -0.27936,0 -0.83925,0.190405 -1.24421,0.423114 -0.40496,0.232721 -4.07165,1.479793 -8.14821,2.771288 -4.07655,1.291495 -7.84703,2.633253 -8.37883,2.981701 -0.88919,0.582611 -0.92011,0.726237 -0.38485,1.786972 0.32012,0.634383 0.71171,2.769821 0.87014,4.745418 0.31964,3.984963 0.77441,4.942338 3.50408,7.376562 1.42137,1.267516 2.29304,1.662079 4.45226,2.015309 3.04033,0.497379 7.82674,0.179919 11.58936,-0.768642 3.73529,-0.941684 5.16865,-1.110624 5.4575,-0.643244 0.26032,0.421196 -2.92149,4.727449 -5.25096,7.106627 -0.69662,0.711506 -1.26659,1.444151 -1.26659,1.628132 0,0.18398 -0.36922,0.6513 -0.82048,1.038497 -0.81096,0.695844 -0.81098,0.740436 -0.002,3.844141 0.69077,2.651454 0.75036,3.575297 0.38308,5.936345 -0.5695,3.660701 -1.91018,7.692021 -3.18082,9.564421 -0.55996,0.82512 -0.93711,1.50023 -0.83813,1.50023 0.0989,0 -0.29706,0.47704 -0.8801,1.06006 -1.42061,1.42062 -2.03795,1.33863 -3.40373,-0.45201 -0.86514,-1.13425 -1.37772,-1.45574 -2.05144,-1.28664 -1.57518,0.39535 -8.03495,-1.66647 -14.43634,-4.60775 -1.633,-0.75033 -3.68037,-1.49768 -4.54967,-1.66076 -1.95449,-0.36666 -7.94269,-2.725755 -8.80613,-3.469216 -1.24211,-1.069554 -4.6594,-2.25963 -7.69748,-2.680633 -2.54914,-0.353256 -3.32171,-0.312966 -4.47288,0.23331 -1.53372,0.727796 -2.67045,0.52356 -2.67045,-0.479788 0,-1.331763 -9.48176,-0.58176 -16.09631,1.273194 -3.98874,1.118575 -4.68086,1.490262 -4.68086,2.513755 0,1.455358 -2.66499,9.204478 -4.68479,13.622228 -0.87445,1.91263 -0.90977,2.27291 -0.43273,4.41473 0.28569,1.28266 0.70885,3.7632 0.94034,5.51229 0.85221,6.43899 2.02709,11.13196 3.74741,14.96882 1.16506,2.59845 4.34363,7.13198 5.48702,7.82606 1.12948,0.68563 1.11041,1.25758 -0.075,2.24647 -1.03845,0.8663 -4.7304,1.15067 -5.19429,0.40008 z"
     sodipodi:nodetypes="cscccssscsssssccscssssccscsssssscsssssssssssssssscccssscssssssssscsssssssscsscsssssssssssscccsssccsssssssscsscsccsssssscccsscscssscsssccsscccscsssscssssssssssscc" />
</svg>
